# 3ds Max Wavefront OBJ Exporter v0.97b - (c)2007 guruware
# File Created: 13.03.2019 17:15:53

mtllib stair.mtl

#
# object StraightStair001
#

v  3.2413 0.9466 0.0000
v  11.3999 -26.9893 0.0000
v  11.3999 -26.9893 1.1907
v  3.2413 0.9466 1.1907
v  14.6412 -26.0427 0.0000
v  6.4826 1.8932 0.0000
v  6.4826 1.8932 1.1907
v  14.6412 -26.0427 1.1907
v  14.6412 -26.0427 2.3815
v  6.4826 1.8932 2.3815
v  17.8824 -25.0960 1.1907
v  9.7239 2.8398 1.1907
v  9.7239 2.8398 2.3815
v  17.8824 -25.0960 2.3815
v  17.8824 -25.0960 3.5722
v  9.7239 2.8398 3.5722
v  21.1237 -24.1494 2.3815
v  12.9652 3.7864 2.3815
v  12.9652 3.7864 3.5722
v  21.1237 -24.1494 3.5722
v  21.1237 -24.1494 4.7630
v  12.9652 3.7864 4.7630
v  24.3650 -23.2028 3.5722
v  16.2064 4.7330 3.5722
v  16.2064 4.7330 4.7630
v  24.3650 -23.2028 4.7630
v  24.3650 -23.2028 5.9537
v  16.2064 4.7330 5.9537
v  27.6063 -22.2562 4.7630
v  19.4477 5.6796 4.7630
v  19.4477 5.6796 5.9537
v  27.6063 -22.2562 5.9537
v  27.6063 -22.2562 7.1445
v  19.4477 5.6796 7.1445
v  30.8476 -21.3096 5.9537
v  22.6890 6.6263 5.9537
v  22.6890 6.6263 7.1445
v  30.8476 -21.3096 7.1445
v  30.8476 -21.3096 8.3352
v  22.6890 6.6263 8.3352
v  34.0889 -20.3630 7.1445
v  25.9303 7.5729 7.1445
v  25.9303 7.5729 8.3352
v  34.0889 -20.3630 8.3352
v  34.0889 -20.3630 9.5260
v  25.9303 7.5729 9.5260
v  37.3302 -19.4164 8.3352
v  29.1716 8.5195 8.3352
v  29.1716 8.5195 9.5260
v  37.3302 -19.4164 9.5260
v  37.3302 -19.4164 10.7167
v  29.1716 8.5195 10.7167
v  40.5715 -18.4698 9.5260
v  32.4129 9.4661 9.5260
v  32.4129 9.4661 10.7167
v  40.5715 -18.4698 10.7167
v  40.5715 -18.4698 11.9074
v  32.4129 9.4661 11.9074
v  43.8127 -17.5232 10.7167
v  35.6542 10.4127 10.7167
v  35.6542 10.4127 11.9074
v  43.8127 -17.5232 11.9074
v  43.8128 -17.5232 11.9074
v  43.8128 -17.5232 13.0982
v  35.6542 10.4127 13.0982
v  47.0540 -16.5766 11.9074
v  38.8955 11.3593 11.9074
v  38.8955 11.3593 13.0982
v  47.0540 -16.5766 13.0982
v  42.5542 -1.1688 11.9074
v  39.3130 -2.1154 10.7167
v  39.3130 -2.1154 11.9074
v  40.1540 -4.9951 10.7167
v  43.3953 -4.0485 11.9074
v  40.1540 -4.9951 11.9074
v  31.9179 -4.2751 0.0000
v  32.7589 -7.1548 0.0000
v  36.0717 -3.0620 9.5260
v  36.0717 -3.0620 10.7167
v  36.9127 -5.9417 9.5260
v  36.9127 -5.9417 10.7167
v  32.8304 -4.0086 8.3352
v  32.8304 -4.0086 9.5260
v  33.6714 -6.8883 8.3352
v  33.6714 -6.8883 9.5260
v  29.5891 -4.9552 7.1445
v  29.5891 -4.9552 8.3352
v  30.4301 -7.8349 7.1445
v  30.4301 -7.8349 8.3352
v  26.3478 -5.9018 5.9537
v  26.3478 -5.9018 7.1445
v  27.1888 -8.7815 5.9537
v  27.1888 -8.7815 7.1445
v  23.1065 -6.8484 4.7630
v  23.1065 -6.8484 5.9537
v  23.9475 -9.7281 4.7630
v  23.9475 -9.7281 5.9537
v  19.8652 -7.7950 3.5722
v  19.8652 -7.7950 4.7630
v  20.7062 -10.6748 3.5722
v  20.7062 -10.6748 4.7630
v  16.6239 -8.7417 2.3815
v  16.6239 -8.7417 3.5722
v  17.4649 -11.6214 2.3815
v  17.4649 -11.6214 3.5722
v  13.3826 -9.6883 1.1907
v  13.3826 -9.6883 2.3815
v  14.2237 -12.5680 1.1907
v  14.2237 -12.5680 2.3815
v  10.1414 -10.6349 0.0000
v  10.1414 -10.6349 1.1907
v  10.9824 -13.5146 0.0000
v  10.9824 -13.5146 1.1907
v  6.9001 -11.5815 0.0000
v  7.7411 -14.4612 0.0000
v  42.5542 -1.1688 3.9074
v  43.3953 -4.0485 3.9074
# 117 vertices

vn -0.9599 -0.2803 0.0000
vn 0.9599 0.2803 0.0000
vn 0.0000 0.0000 1.0000
vn 0.0000 0.0000 -1.0000
vn -0.2803 0.9599 0.0000
vn 0.2803 -0.9599 0.0000
vn -0.9599 -0.2803 -0.0000
vn 0.3192 0.0932 -0.9431
# 8 vertex normals

o StraightStair001
g StraightStair001
usemtl 01___Default
s 1
f 1//1 2//1 3//1 
f 3//1 4//1 1//1 
f 5//2 6//2 7//2 
f 7//2 8//2 5//2 
s 2
f 4//3 3//3 8//3 
f 8//3 7//3 4//3 
f 2//4 1//4 6//4 
f 6//4 5//4 2//4 
s 4
f 1//5 4//5 7//5 
f 7//5 6//5 1//5 
f 3//6 2//6 5//6 
f 5//6 8//6 3//6 
s 1
f 7//1 8//1 9//1 
f 9//1 10//1 7//1 
f 11//2 12//2 13//2 
f 13//2 14//2 11//2 
s 2
f 10//3 9//3 14//3 
f 14//3 13//3 10//3 
f 8//4 7//4 12//4 
f 12//4 11//4 8//4 
s 4
f 7//5 10//5 13//5 
f 13//5 12//5 7//5 
f 9//6 8//6 11//6 
f 11//6 14//6 9//6 
s 1
f 13//1 14//1 15//1 
f 15//1 16//1 13//1 
f 17//2 18//2 19//2 
f 19//2 20//2 17//2 
s 2
f 16//3 15//3 20//3 
f 20//3 19//3 16//3 
f 14//4 13//4 18//4 
f 18//4 17//4 14//4 
s 4
f 13//5 16//5 19//5 
f 19//5 18//5 13//5 
f 15//6 14//6 17//6 
f 17//6 20//6 15//6 
s 1
f 19//1 20//1 21//1 
f 21//1 22//1 19//1 
f 23//2 24//2 25//2 
f 25//2 26//2 23//2 
s 2
f 22//3 21//3 26//3 
f 26//3 25//3 22//3 
f 20//4 19//4 24//4 
f 24//4 23//4 20//4 
s 4
f 19//5 22//5 25//5 
f 25//5 24//5 19//5 
f 21//6 20//6 23//6 
f 23//6 26//6 21//6 
s 1
f 25//1 26//1 27//1 
f 27//1 28//1 25//1 
f 29//2 30//2 31//2 
f 31//2 32//2 29//2 
s 2
f 28//3 27//3 32//3 
f 32//3 31//3 28//3 
f 26//4 25//4 30//4 
f 30//4 29//4 26//4 
s 4
f 25//5 28//5 31//5 
f 31//5 30//5 25//5 
f 27//6 26//6 29//6 
f 29//6 32//6 27//6 
s 1
f 31//1 32//1 33//1 
f 33//1 34//1 31//1 
f 35//2 36//2 37//2 
f 37//2 38//2 35//2 
s 2
f 34//3 33//3 38//3 
f 38//3 37//3 34//3 
f 32//4 31//4 36//4 
f 36//4 35//4 32//4 
s 4
f 31//5 34//5 37//5 
f 37//5 36//5 31//5 
f 33//6 32//6 35//6 
f 35//6 38//6 33//6 
s 1
f 37//1 38//1 39//1 
f 39//1 40//1 37//1 
f 41//2 42//2 43//2 
f 43//2 44//2 41//2 
s 2
f 40//3 39//3 44//3 
f 44//3 43//3 40//3 
f 38//4 37//4 42//4 
f 42//4 41//4 38//4 
s 4
f 37//5 40//5 43//5 
f 43//5 42//5 37//5 
f 39//6 38//6 41//6 
f 41//6 44//6 39//6 
s 1
f 43//1 44//1 45//1 
f 45//1 46//1 43//1 
f 47//2 48//2 49//2 
f 49//2 50//2 47//2 
s 2
f 46//3 45//3 50//3 
f 50//3 49//3 46//3 
f 44//4 43//4 48//4 
f 48//4 47//4 44//4 
s 4
f 43//5 46//5 49//5 
f 49//5 48//5 43//5 
f 45//6 44//6 47//6 
f 47//6 50//6 45//6 
s 1
f 49//1 50//1 51//1 
f 51//1 52//1 49//1 
f 53//2 54//2 55//2 
f 55//2 56//2 53//2 
s 2
f 52//3 51//3 56//3 
f 56//3 55//3 52//3 
f 50//4 49//4 54//4 
f 54//4 53//4 50//4 
s 4
f 49//5 52//5 55//5 
f 55//5 54//5 49//5 
f 51//6 50//6 53//6 
f 53//6 56//6 51//6 
s 1
f 55//1 56//1 57//1 
f 57//1 58//1 55//1 
f 59//2 60//2 61//2 
f 61//2 62//2 59//2 
s 2
f 58//3 57//3 62//3 
f 62//3 61//3 58//3 
f 56//4 55//4 60//4 
f 60//4 59//4 56//4 
s 4
f 55//5 58//5 61//5 
f 61//5 60//5 55//5 
f 57//6 56//6 59//6 
f 59//6 62//6 57//6 
s 1
f 61//1 63//1 64//1 
f 64//1 65//1 61//1 
f 66//2 67//2 68//2 
f 68//2 69//2 66//2 
s 2
f 65//3 64//3 69//3 
f 69//3 68//3 65//3 
f 63//4 61//4 67//4 
f 67//4 66//4 63//4 
s 4
f 61//5 65//5 68//5 
f 68//5 67//5 61//5 
f 64//6 63//6 66//6 
f 66//6 69//6 64//6 
s 1
f 70//5 71//5 72//5 
f 73//6 74//6 75//6 
f 76//5 71//5 70//5 
f 77//6 74//6 73//6 
f 71//5 78//5 79//5 
f 80//6 73//6 81//6 
f 76//5 78//5 71//5 
f 77//6 73//6 80//6 
f 78//5 82//5 83//5 
f 84//6 80//6 85//6 
f 76//5 82//5 78//5 
f 77//6 80//6 84//6 
f 82//5 86//5 87//5 
f 88//6 84//6 89//6 
f 76//5 86//5 82//5 
f 77//6 84//6 88//6 
f 86//5 90//5 91//5 
f 92//6 88//6 93//6 
f 76//5 90//5 86//5 
f 77//6 88//6 92//6 
f 90//5 94//5 95//5 
f 96//6 92//6 97//6 
f 76//5 94//5 90//5 
f 77//6 92//6 96//6 
f 94//5 98//5 99//5 
f 100//6 96//6 101//6 
f 76//5 98//5 94//5 
f 77//6 96//6 100//6 
f 98//5 102//5 103//5 
f 104//6 100//6 105//6 
f 76//5 102//5 98//5 
f 77//6 100//6 104//6 
f 102//5 106//5 107//5 
f 108//6 104//6 109//6 
f 76//5 106//5 102//5 
f 77//6 104//6 108//6 
f 106//5 110//5 111//5 
f 112//6 108//6 113//6 
f 76//5 110//5 106//5 
f 77//6 108//6 112//6 
f 110//5 114//6 114//6 
f 115//6 112//6 115//6 
f 76//5 114//6 110//5 
f 77//6 112//6 115//6 
f 76//5 70//5 116//5 
f 77//6 117//6 74//6 
s 2
f 70//3 72//3 75//3 
f 75//3 74//3 70//3 
s 4
f 72//1 71//1 73//1 
f 73//1 75//1 72//1 
s 2
f 71//3 79//3 81//3 
f 81//3 73//3 71//3 
s 4
f 79//1 78//1 80//1 
f 80//1 81//1 79//1 
s 2
f 78//3 83//3 85//3 
f 85//3 80//3 78//3 
s 4
f 83//1 82//1 84//1 
f 84//1 85//1 83//1 
s 2
f 82//3 87//3 89//3 
f 89//3 84//3 82//3 
s 4
f 87//1 86//1 88//1 
f 88//1 89//1 87//1 
s 2
f 86//3 91//3 93//3 
f 93//3 88//3 86//3 
s 4
f 91//1 90//1 92//1 
f 92//1 93//1 91//1 
s 2
f 90//3 95//3 97//3 
f 97//3 92//3 90//3 
s 4
f 95//1 94//1 96//1 
f 96//1 97//1 95//1 
s 2
f 94//3 99//3 101//3 
f 101//3 96//3 94//3 
s 4
f 99//1 98//1 100//1 
f 100//1 101//1 99//1 
s 2
f 98//3 103//3 105//3 
f 105//3 100//3 98//3 
s 4
f 103//7 102//7 104//7 
f 104//7 105//7 103//7 
s 2
f 102//3 107//3 109//3 
f 109//3 104//3 102//3 
s 4
f 107//1 106//1 108//1 
f 108//1 109//1 107//1 
s 2
f 106//3 111//3 113//3 
f 113//3 108//3 106//3 
s 4
f 111//1 110//1 112//1 
f 112//1 113//1 111//1 
s 2
f 110//3 114//3 115//3 
f 115//3 112//3 110//3 
s 4
f 114//6 114//6 115//6 
f 115//6 115//6 114//6 
s 8
f 114//4 76//4 77//4 
f 77//4 115//4 114//4 
s 2
f 76//8 116//8 117//8 
f 117//8 77//8 76//8 
s 4
f 116//2 70//2 74//2 
f 74//2 117//2 116//2 
# 228 faces

